<svg width="52" height="52" viewBox="0 0 52 52" fill="none" xmlns="http://www.w3.org/2000/svg">
<rect x="1.5" y="1.5" width="49" height="49" rx="7.5" stroke="#937CE6" stroke-width="3"/>
<path d="M35.4481 16.563C34.8631 15.978 33.9181 15.978 33.3331 16.563L25.9981 23.883L18.6631 16.548C18.0781 15.963 17.1331 15.963 16.5481 16.548C15.9631 17.133 15.9631 18.078 16.5481 18.663L23.8831 25.998L16.5481 33.333C15.9631 33.918 15.9631 34.863 16.5481 35.448C17.1331 36.033 18.0781 36.033 18.6631 35.448L25.9981 28.113L33.3331 35.448C33.9181 36.033 34.8631 36.033 35.4481 35.448C36.0331 34.863 36.0331 33.918 35.4481 33.333L28.1131 25.998L35.4481 18.663C36.0181 18.093 36.0181 17.133 35.4481 16.563Z" fill="#937CE6"/>
</svg>
