<svg width="39" height="29" viewBox="0 0 39 29" fill="none" xmlns="http://www.w3.org/2000/svg">
<path d="M28.45 8.37778L16.575 20.1513M16.575 8.37778L28.45 20.1513M24.7555 26.7444H15.7298C13.4845 26.7444 12.3619 26.7444 11.3277 26.4159C10.8693 26.2703 10.4272 26.0779 10.0083 25.8416C9.06315 25.3086 8.29816 24.4869 6.76817 22.8436V22.8436C3.63274 19.4759 2.06502 17.7921 1.68759 15.8084C1.5231 14.9439 1.5231 14.0561 1.68759 13.1916C2.06502 11.2079 3.63274 9.5241 6.76817 6.15641V6.15641C8.29816 4.51309 9.06315 3.69143 10.0083 3.15838C10.4272 2.92213 10.8693 2.72969 11.3277 2.58408C12.3619 2.25555 13.4845 2.25555 15.7298 2.25555H24.7556C29.6659 2.25555 32.121 2.25555 33.8854 3.43284C34.6525 3.94471 35.3108 4.6031 35.8227 5.37019C37 7.13451 37 9.58967 37 14.5V14.5C37 19.4103 37 21.8655 35.8227 23.6298C35.3108 24.3969 34.6525 25.0553 33.8854 25.5672C32.121 26.7444 29.6659 26.7444 24.7555 26.7444Z" stroke="#937CE6" stroke-width="3" stroke-linecap="round" stroke-linejoin="round"/>
</svg>
